<svg width="26" height="26" viewBox="0 0 26 26" fill="none" xmlns="http://www.w3.org/2000/svg">
<path fill-rule="evenodd" clip-rule="evenodd" d="M12.5019 3.49034C9.84976 3.49239 7.30703 4.54792 5.43312 6.42474C3.55921 8.30155 2.50761 10.8459 2.50965 13.4981C2.51067 14.8113 2.77033 16.1114 3.27381 17.3243C3.7773 18.5372 4.51474 19.639 5.44405 20.5669C6.37335 21.4947 7.47631 22.2305 8.68995 22.7321C9.90359 23.2337 11.2042 23.4914 12.5174 23.4903C13.8306 23.4893 15.1307 23.2297 16.3436 22.7262C17.5565 22.2227 18.6583 21.4852 19.5862 20.5559C20.514 19.6266 21.2498 18.5237 21.7514 17.31C22.253 16.0964 22.5106 14.7958 22.5096 13.4826C22.5076 10.8305 21.4521 8.28773 19.5752 6.41381C17.6984 4.5399 15.1541 3.48829 12.5019 3.49034ZM3.66399 4.65834C6.00638 2.31232 9.18479 0.992904 12.5 0.990343C15.8152 0.987782 18.9956 2.30229 21.3416 4.64468C23.6877 6.98707 25.0071 10.1655 25.0096 13.4807C25.0109 15.1222 24.6888 16.7479 24.0618 18.265C23.4348 19.782 22.5151 21.1607 21.3553 22.3223C20.1955 23.484 18.8182 24.4058 17.3021 25.0351C15.786 25.6645 14.1608 25.9891 12.5193 25.9903C10.8778 25.9916 9.25208 25.6695 7.73503 25.0425C6.21797 24.4155 4.83927 23.4958 3.67765 22.336C2.51602 21.1762 1.59421 19.7989 0.964857 18.2828C0.335502 16.7667 0.010925 15.1415 0.0096568 13.5C0.00709573 10.1848 1.3216 7.00435 3.66399 4.65834ZM17.1409 10.1029C17.6294 10.5907 17.6301 11.3821 17.1423 11.8706L12.1461 16.8745C11.6584 17.363 10.8669 17.3636 10.3784 16.8759L7.87645 14.3778C7.38792 13.89 7.38731 13.0986 7.87508 12.61C8.36286 12.1215 9.15432 12.1209 9.64285 12.6087L11.2602 14.2235L15.3731 10.1042C15.8609 9.61571 16.6524 9.6151 17.1409 10.1029Z" fill="#1C3144"/>
</svg>
